<?xml version="1.0" standalone="no"?>
<!DOCTYPE svg PUBLIC "-//W3C//DTD SVG 20010904//EN"
 "http://www.w3.org/TR/2001/REC-SVG-20010904/DTD/svg10.dtd">
<svg version="1.0" xmlns="http://www.w3.org/2000/svg"
 width="1024.000000pt" height="1024.000000pt" viewBox="0 0 1024.000000 1024.000000"
 preserveAspectRatio="xMidYMid meet">

<g transform="translate(0.000000,1024.000000) scale(0.100000,-0.100000)"
fill="#000000" stroke="none">
<path d="M4832 10090 c-1393 -87 -2653 -723 -3541 -1788 -646 -774 -1040
-1735 -1131 -2757 -35 -405 -16 -855 55 -1271 152 -883 540 -1705 1133 -2399
122 -142 416 -433 557 -551 338 -281 621 -467 1005 -658 547 -272 1086 -427
1735 -498 162 -18 779 -18 940 0 402 44 721 110 1055 218 1825 586 3158 2182
3409 4079 59 448 54 960 -14 1415 -283 1890 -1664 3469 -3510 4015 -434 128
-848 191 -1320 199 -132 3 -300 1 -373 -4z m258 -280 c11 -11 20 -29 20 -40 0
-26 -34 -60 -62 -60 -50 0 -76 63 -41 102 21 24 58 23 83 -2z m-1107 -165 c90
-37 114 -81 198 -360 28 -93 58 -178 67 -188 12 -13 27 -17 56 -15 80 6 42
-18 -87 -56 -72 -21 -140 -41 -149 -44 -34 -9 -18 24 17 37 21 7 37 21 40 34
11 42 -112 432 -152 485 -49 65 -134 77 -221 33 -81 -42 -118 -112 -103 -194
15 -81 108 -386 126 -414 14 -21 23 -24 57 -21 79 6 47 -18 -68 -51 -77 -23
-119 -30 -125 -24 -7 7 0 14 20 21 56 20 58 45 16 189 -62 211 -85 303 -85
342 0 56 42 135 90 170 85 61 227 88 303 56z m2716 -93 c94 -26 170 -51 170
-57 0 -5 -14 -9 -30 -7 -67 5 -65 9 -165 -357 -43 -159 -55 -217 -47 -230 9
-14 39 -34 67 -44 5 -2 7 -8 3 -14 -7 -10 -146 24 -317 78 -152 49 -228 108
-264 208 -28 78 -19 206 19 285 45 95 124 161 222 186 63 15 164 1 342 -48z
m-1607 -119 c39 -35 11 -103 -43 -103 -30 0 -59 31 -59 62 0 25 35 58 62 58
12 0 30 -7 40 -17z m-1872 -24 c0 -6 -14 -22 -31 -36 -22 -19 -29 -32 -25 -48
7 -27 234 -455 252 -474 14 -16 97 -21 132 -8 16 6 22 5 22 -5 0 -7 -37 -33
-83 -57 l-82 -43 -297 125 c-164 69 -298 122 -298 119 0 -6 178 -339 198 -370
16 -24 50 -27 95 -7 11 5 17 3 17 -7 0 -18 -208 -129 -216 -116 -4 6 7 21 25
35 18 14 31 34 31 46 0 12 -67 147 -149 300 -101 189 -145 280 -137 283 7 3
156 -54 330 -127 174 -72 319 -130 321 -128 6 7 -206 394 -223 407 -16 13 -30
12 -79 -3 -14 -5 -23 -3 -23 3 0 10 195 121 213 122 4 0 7 -5 7 -11z m4254
-230 c18 -16 -3 -22 -34 -9 -56 23 -66 11 -203 -252 -70 -134 -127 -254 -127
-265 0 -12 14 -33 32 -47 62 -48 16 -40 -95 16 -124 63 -155 83 -145 93 3 4
23 1 42 -6 34 -12 38 -12 60 11 26 27 252 454 262 495 5 20 0 31 -25 54 -60
56 -29 52 97 -14 70 -37 131 -71 136 -76z m419 -249 c66 -52 63 -34 47 -294
-9 -146 -8 -149 13 -167 12 -10 25 -18 28 -19 7 0 111 124 141 169 25 36 22
66 -8 94 -18 17 -22 27 -15 32 7 4 17 3 24 -2 89 -68 217 -176 217 -183 0 -15
-26 -12 -40 6 -8 9 -25 14 -44 12 -26 -3 -48 -24 -149 -148 -165 -204 -237
-299 -237 -315 0 -7 11 -27 25 -43 27 -33 31 -42 14 -42 -15 0 -261 202 -294
242 -59 70 -70 137 -32 208 40 76 130 108 219 76 l36 -13 7 123 c11 179 5 234
-29 278 -15 20 -24 41 -21 46 7 11 11 9 98 -60z m-5488 21 c3 -5 -3 -16 -13
-23 -32 -22 -44 -55 -31 -80 15 -29 285 -406 312 -435 24 -27 47 -29 87 -8 59
30 39 -5 -32 -57 -155 -114 -168 -122 -179 -111 -8 8 -5 14 10 23 32 17 41 50
24 84 -12 23 -196 283 -293 414 -30 41 -62 50 -96 27 -17 -11 -30 -13 -36 -7
-6 6 32 40 109 95 65 48 121 86 125 87 4 0 9 -4 13 -9z m3075 -11 c1042 -95
2002 -613 2659 -1435 710 -888 987 -2043 761 -3165 -301 -1493 -1480 -2681
-2970 -2994 -750 -157 -1516 -91 -2240 195 -144 56 -468 224 -610 314 -891
570 -1513 1468 -1715 2480 -63 313 -69 385 -70 765 0 362 8 464 56 720 192
1012 771 1893 1628 2475 542 369 1136 578 1841 648 84 9 555 6 660 -3z m-3180
-773 l64 -20 38 21 c22 12 40 16 44 11 6 -10 -21 -42 -133 -162 -57 -60 -84
-67 -57 -16 19 38 14 53 -26 74 -36 19 -440 158 -445 153 -1 -2 46 -104 106
-227 120 -247 106 -231 188 -205 35 11 25 -8 -49 -92 -64 -71 -89 -86 -81 -48
13 66 3 94 -138 392 -79 166 -141 309 -138 317 5 11 63 -6 284 -82 153 -52
307 -105 343 -116z m6420 -53 c29 -16 72 -47 94 -69 64 -63 248 -304 240 -316
-4 -7 -17 0 -34 16 -20 19 -36 26 -53 23 -31 -6 -441 -325 -459 -356 -10 -20
-10 -29 5 -54 19 -32 21 -48 9 -48 -5 0 -52 56 -105 124 -176 227 -204 284
-195 399 7 80 41 149 105 209 86 80 159 109 263 105 61 -3 86 -9 130 -33z
m-7386 -203 c3 -4 -1 -17 -9 -27 -31 -41 -19 -70 48 -117 209 -147 411 -277
432 -277 13 0 32 11 43 25 21 26 48 35 39 13 -4 -11 -282 -425 -292 -437 -3
-2 -117 61 -134 76 -3 2 0 8 5 13 6 6 23 5 46 -2 62 -19 80 -7 157 107 l71
104 -105 71 c-58 39 -109 68 -114 66 -17 -11 -100 -141 -106 -167 -5 -19 0
-34 20 -57 50 -59 15 -53 -86 15 -54 37 -97 72 -95 78 2 5 10 8 17 6 47 -14
81 -12 101 5 21 20 94 123 104 147 5 15 -200 157 -228 157 -29 0 -148 -184
-148 -229 0 -12 9 -44 20 -73 21 -56 25 -78 13 -78 -11 1 -108 135 -108 149 0
14 287 441 297 441 4 0 9 -4 12 -9z m7980 -640 c31 -69 56 -126 56 -128 0 -12
-31 1 -40 17 -18 34 -51 24 -112 -37 -32 -32 -58 -61 -58 -65 0 -4 23 -60 51
-123 l52 -115 74 0 c98 0 116 10 111 62 -2 23 2 43 7 45 9 3 95 -179 95 -199
0 -16 -22 -7 -40 15 l-18 22 -366 -1 c-257 -1 -366 2 -369 10 -3 6 87 108 200
226 271 285 286 304 281 352 -2 21 1 40 7 42 13 4 7 16 69 -123z m-8437 -147
c-2 -39 2 -49 23 -65 32 -24 485 -199 515 -199 27 0 51 20 60 51 7 21 32 21
27 -1 -13 -56 -130 -329 -156 -363 -103 -137 -289 -85 -312 87 -6 44 -8 46
-39 46 -37 0 -234 -54 -276 -75 -15 -8 -41 -31 -56 -50 -24 -30 -53 -46 -53
-30 0 14 63 162 73 171 7 7 90 33 186 58 96 25 180 51 187 57 21 17 17 47 -9
64 -35 22 -183 75 -212 75 -19 0 -30 -9 -42 -35 -16 -33 -41 -43 -35 -14 3 16
92 251 99 262 12 20 21 2 20 -39z m-214 -840 c117 -32 127 -50 29 -56 -85 -4
-121 -28 -158 -103 -21 -44 -25 -64 -21 -98 11 -79 95 -122 157 -80 14 9 68
58 120 108 52 51 114 102 137 114 139 70 285 -47 258 -207 -5 -33 -39 -100
-77 -154 -10 -14 -9 -21 7 -37 10 -12 15 -24 11 -28 -4 -4 -58 6 -121 22 -129
33 -152 55 -60 55 96 0 172 58 189 146 13 61 -31 124 -87 124 -43 0 -62 -14
-192 -140 -92 -88 -118 -109 -159 -120 -155 -43 -279 114 -221 280 8 24 29 65
45 92 34 55 37 73 14 86 -21 12 -9 35 14 28 10 -3 61 -17 115 -32z m9037 29
c0 -5 11 -70 24 -145 17 -106 20 -138 10 -138 -7 0 -18 16 -24 35 -8 23 -19
37 -35 41 -30 8 -490 -67 -473 -77 7 -4 135 -39 283 -79 149 -40 276 -78 283
-85 11 -10 -32 -43 -235 -180 -136 -92 -252 -171 -256 -175 -8 -7 424 63 465
76 31 9 38 22 38 67 0 26 4 37 12 35 12 -4 46 -169 47 -226 1 -34 -21 -22 -31
16 -14 54 -24 55 -289 12 -134 -22 -259 -42 -277 -46 -40 -8 -62 -37 -62 -81
0 -37 -17 -45 -25 -10 -11 50 -25 142 -25 162 0 16 52 56 234 180 129 88 233
162 231 165 -2 4 -127 40 -278 80 l-274 74 -12 80 c-7 45 -14 89 -17 99 -3 11
0 17 10 17 8 0 17 -13 21 -31 12 -55 26 -56 326 -5 242 40 276 48 292 68 13
15 17 31 13 50 -4 21 -2 28 9 28 8 0 15 -3 15 -7z m-9270 -767 c0 -44 20 -63
73 -70 105 -14 513 -33 532 -26 25 9 35 29 35 66 0 15 6 24 16 24 14 0 15 -10
10 -67 -3 -38 -8 -108 -12 -156 -4 -60 -10 -87 -17 -84 -7 2 -14 21 -17 43 -4
29 -11 42 -30 50 -14 7 -146 20 -293 29 -252 16 -269 16 -287 0 -10 -9 -22
-30 -25 -46 -4 -16 -11 -29 -17 -29 -10 0 -2 275 9 293 11 18 23 4 23 -27z
m648 -683 c-3 -224 -4 -241 -26 -288 -40 -86 -105 -140 -202 -169 -151 -45
-316 8 -394 126 -48 73 -63 149 -70 366 -5 157 -4 182 9 182 9 0 15 -9 15 -23
0 -12 7 -33 16 -45 15 -22 19 -22 242 -21 257 0 359 8 373 30 5 8 9 29 9 47 0
22 5 32 16 32 14 0 15 -27 12 -237z m8061 -778 c61 -15 66 -35 9 -35 -67 0
-82 -17 -123 -140 -20 -61 -35 -116 -32 -123 3 -7 52 -27 111 -45 58 -18 112
-35 119 -38 10 -4 21 20 40 88 15 52 27 101 27 110 0 9 -17 30 -37 47 -20 17
-34 34 -30 37 10 10 229 -59 228 -71 0 -6 -21 -11 -46 -13 -34 -2 -49 -9 -61
-26 -21 -32 -65 -179 -56 -187 13 -13 252 -81 265 -76 12 5 59 143 73 213 7
36 -13 81 -57 132 -30 34 -36 52 -19 52 11 0 150 -100 150 -108 0 -2 -34 -117
-77 -253 -45 -147 -81 -249 -88 -249 -9 0 -11 13 -8 44 5 41 3 45 -23 59 -16
8 -144 49 -284 92 -178 54 -259 75 -270 68 -8 -5 -22 -24 -30 -41 -16 -34 -37
-38 -32 -6 4 23 143 476 149 487 2 4 16 4 31 0 15 -3 47 -11 71 -18z m-8619
-6 c7 -11 26 -27 44 -34 18 -8 180 -32 362 -55 181 -23 333 -46 339 -51 12
-12 26 1 -272 -238 -139 -111 -260 -212 -268 -224 -8 -12 -15 -36 -15 -54 0
-21 -5 -33 -13 -33 -9 0 -26 44 -48 123 -19 67 -34 126 -34 131 0 19 21 15 30
-6 6 -12 18 -26 27 -32 17 -10 50 8 126 72 l34 28 -33 117 c-18 64 -35 121
-39 127 -4 6 -48 14 -97 17 -85 5 -91 5 -97 -15 -4 -11 -4 -32 0 -46 4 -19 2
-26 -8 -26 -10 0 -25 34 -45 105 -17 57 -28 107 -25 110 10 10 21 5 32 -16z
m1004 -834 c95 -190 113 -252 96 -331 -32 -141 -145 -244 -303 -275 -113 -23
-239 31 -317 134 -32 42 -200 345 -200 360 0 16 29 5 35 -13 9 -27 41 -43 72
-35 34 8 453 233 481 258 24 22 28 47 12 78 -6 11 -8 24 -4 31 11 17 35 -22
128 -207z m7531 90 c209 -54 318 -237 259 -435 -25 -84 -171 -370 -189 -370
-13 0 -14 4 -5 20 6 12 10 35 8 53 -3 31 -10 35 -253 159 -137 70 -259 127
-270 128 -11 0 -32 -14 -47 -32 -49 -61 -43 -18 16 100 139 279 188 339 311
378 54 17 100 17 170 -1z m-642 -1059 c121 -52 128 -210 12 -266 -49 -24 -74
-25 -118 -6 -147 62 -105 277 56 285 10 1 32 -5 50 -13z m-6453 -15 c107 -56
107 -203 -1 -259 -100 -53 -209 16 -209 131 0 109 115 179 210 128z m5950
-114 c0 -8 -9 -22 -20 -32 -38 -34 -26 -57 116 -217 252 -282 256 -286 315
-251 43 26 49 5 8 -30 -20 -18 -70 -63 -112 -100 -76 -69 -122 -85 -72 -25 14
16 25 35 25 42 0 21 -48 80 -217 266 -132 146 -164 176 -189 178 -19 2 -36 -3
-44 -12 -14 -17 -40 -22 -40 -7 0 12 208 201 221 201 5 0 9 -6 9 -13z m-5380
-153 c36 -17 75 -46 113 -87 51 -55 59 -60 77 -49 25 15 40 15 40 0 0 -23 -94
-208 -103 -205 -6 2 -9 36 -8 79 3 89 -18 141 -72 182 -144 110 -309 42 -413
-169 -40 -81 -52 -158 -34 -224 23 -85 140 -171 232 -171 16 0 56 9 90 21 42
14 64 17 71 10 7 -7 -8 -19 -49 -38 -122 -57 -272 -26 -368 77 -55 59 -72 91
-85 166 -20 107 17 224 100 318 104 118 267 154 409 90z m5054 -123 c3 -4 -6
-19 -19 -31 -47 -45 -46 -47 176 -347 71 -96 136 -176 145 -180 9 -3 31 2 50
11 42 19 44 20 44 4 -1 -20 -230 -182 -241 -171 -6 6 0 18 16 33 29 27 32 56
8 90 -77 115 -309 422 -324 430 -13 8 -29 6 -55 -5 -43 -18 -44 -18 -44 -5 0
10 218 178 232 179 4 1 9 -3 12 -8z m-360 -238 c3 -4 -7 -19 -24 -34 -16 -15
-30 -37 -30 -47 0 -20 248 -462 278 -495 17 -19 55 -20 95 -2 11 5 17 3 17 -6
-1 -20 -252 -161 -261 -147 -5 7 4 19 22 30 21 13 29 26 29 45 0 26 -57 132
-212 396 l-70 119 -36 -4 c-21 -3 -43 -7 -51 -9 -7 -2 -15 1 -17 6 -2 6 51 42
119 82 132 77 130 76 141 66z m-3942 -149 c-2 -21 -14 -164 -28 -316 -31 -354
-31 -362 1 -394 26 -25 32 -44 16 -44 -22 0 -242 123 -238 134 3 6 11 9 18 7
8 -2 21 -6 31 -8 26 -8 45 35 52 117 l7 75 -110 58 c-60 31 -114 57 -119 57
-6 0 -38 -23 -71 -51 -69 -57 -78 -87 -35 -115 15 -10 21 -21 16 -26 -11 -11
-204 82 -199 97 2 5 21 10 43 10 22 0 51 7 64 16 14 9 139 109 279 223 140
114 259 205 265 203 6 -2 9 -21 8 -43z m3214 -305 c13 -57 23 -110 23 -116 1
-22 -27 -14 -34 10 -11 34 -54 87 -89 108 -21 13 -50 19 -89 19 -54 0 -62 -3
-93 -34 -26 -26 -34 -42 -34 -70 0 -57 36 -85 165 -126 152 -48 204 -71 234
-105 82 -94 57 -225 -56 -292 -44 -26 -57 -28 -158 -30 -60 -1 -113 -2 -117
-3 -5 0 -8 -9 -8 -20 0 -11 -6 -20 -14 -20 -9 0 -20 35 -36 115 -22 111 -20
151 4 111 55 -90 67 -104 102 -121 48 -23 129 -23 172 -1 44 23 74 72 67 111
-9 54 -60 88 -198 134 -187 63 -237 107 -237 211 0 60 17 96 64 137 50 45 96
57 188 50 77 -6 79 -6 90 19 6 13 16 23 22 21 5 -2 20 -50 32 -108z m-2617 60
c86 -23 172 -49 191 -59 100 -52 137 -156 87 -244 -27 -49 -72 -76 -137 -85
l-49 -6 52 -130 c29 -72 61 -146 73 -165 18 -31 66 -72 96 -82 6 -2 9 -9 5
-14 -6 -10 -158 22 -183 38 -6 4 -42 87 -79 184 -58 147 -73 178 -94 185 -13
6 -29 8 -35 6 -6 -3 -24 -57 -40 -122 -32 -133 -29 -161 24 -171 16 -4 30 -13
30 -20 0 -18 12 -20 -155 22 -94 24 -142 40 -139 48 3 7 20 10 43 8 33 -3 42
0 56 21 8 13 45 141 81 283 71 283 72 295 14 316 -32 11 -40 28 -13 28 9 0 86
-18 172 -41z m1814 -169 c73 -34 133 -94 169 -168 31 -62 33 -74 33 -167 0
-89 -3 -107 -29 -162 -33 -73 -104 -144 -174 -176 -36 -16 -67 -21 -132 -22
-73 0 -93 4 -141 28 -134 65 -208 205 -197 372 6 96 41 167 114 234 98 90 244
114 357 61z m-1075 10 c102 0 122 -2 122 -15 0 -11 -11 -15 -35 -15 -24 0 -44
-8 -59 -23 -23 -23 -24 -31 -31 -238 -10 -316 -10 -328 3 -341 6 -6 55 -13
114 -16 145 -6 174 9 244 124 27 45 23 -2 -8 -91 l-33 -97 -80 6 c-44 3 -164
9 -267 12 -149 5 -188 9 -188 20 0 9 12 14 34 14 19 0 39 7 47 16 14 17 25
182 30 443 2 139 2 145 -20 163 -13 10 -34 18 -47 18 -16 0 -24 6 -24 16 0 14
7 15 38 10 20 -3 92 -6 160 -6z"/>
<path d="M6393 9531 c-59 -27 -118 -93 -144 -159 -26 -67 -36 -188 -20 -242
28 -94 123 -168 229 -177 l57 -5 73 268 c40 148 73 274 72 281 0 6 -25 21 -55
32 -70 26 -156 27 -212 2z"/>
<path d="M7755 8476 c-72 -32 -109 -113 -82 -179 13 -31 86 -97 107 -97 12 0
163 192 164 208 1 20 -79 69 -124 76 -20 4 -48 0 -65 -8z"/>
<path d="M4470 8409 c-547 -28 -1062 -216 -1517 -552 -46 -34 -83 -64 -83 -67
0 -9 188 -190 198 -190 5 0 16 7 23 16 7 9 67 59 133 112 483 388 1015 604
1481 601 l90 0 -125 -37 c-402 -120 -691 -284 -941 -532 -548 -544 -829 -1419
-689 -2145 81 -419 298 -837 594 -1144 148 -152 288 -258 479 -360 l97 -52 0
-80 0 -79 -27 6 c-16 4 -75 22 -133 41 -209 69 -439 197 -635 356 -79 64 -270
254 -355 354 l-45 52 -117 -92 c-65 -51 -117 -95 -118 -99 0 -13 140 -157 230
-236 188 -164 454 -312 722 -400 146 -48 375 -102 432 -102 31 0 32 -11 7 -65
-36 -79 -118 -125 -226 -125 -34 0 -35 -1 -35 -40 l0 -40 1210 0 1210 0 0 40
0 40 -43 0 c-59 0 -128 22 -170 54 -39 30 -83 105 -75 127 4 9 40 21 98 32
460 89 905 330 1184 642 l66 73 -121 95 -121 96 -61 -71 c-235 -274 -476 -466
-747 -597 -107 -52 -285 -121 -312 -121 -4 0 -8 40 -8 88 l0 88 48 23 c81 39
263 166 357 249 329 291 591 748 689 1202 37 170 50 321 43 505 -22 615 -271
1214 -685 1646 -260 272 -549 442 -957 564 -66 19 -124 38 -130 40 -22 11 276
-5 360 -19 436 -73 849 -284 1309 -670 l47 -39 95 94 c52 51 94 97 94 100 0
11 -166 131 -273 199 -353 221 -735 355 -1158 406 -164 19 -507 20 -664 1 -88
-11 -132 -11 -220 -1 -154 16 -346 22 -505 13z m790 -164 c726 -232 1316 -949
1476 -1794 32 -166 43 -441 25 -598 -60 -517 -298 -1001 -670 -1368 l-71 -69
0 965 c0 987 4 1094 39 1174 36 81 112 125 219 125 l52 0 0 40 0 40 -1210 0
-1210 0 0 -40 0 -40 53 0 c99 0 194 -66 228 -158 11 -30 14 -232 17 -1101 l3
-1063 -62 53 c-34 30 -102 98 -150 152 -490 538 -697 1233 -568 1904 91 474
337 940 674 1277 248 248 510 409 835 513 128 41 160 39 320 -12z m-411 -1603
c70 -43 99 -98 111 -212 10 -98 15 -2490 5 -2490 -35 0 -343 137 -433 192
l-34 21 5 1131 c3 802 8 1148 16 1191 14 70 49 135 89 164 68 48 166 50 241 3z
m739 14 c42 -22 92 -74 109 -114 27 -65 33 -291 33 -1313 l0 -1036 -38 -26
c-70 -46 -206 -116 -316 -162 -59 -25 -110 -45 -112 -45 -9 0 -3 2340 6 2433
5 54 15 116 22 138 16 54 73 117 123 135 47 17 130 13 173 -10z m132 -2745 c0
-48 0 -48 -37 -55 -55 -9 -263 -7 -263 2 0 5 30 16 68 26 37 10 101 30 142 46
41 16 78 29 83 29 4 1 7 -21 7 -48z m-973 -55 c4 -4 -47 -5 -112 -4 l-120 3
-3 42 -3 41 116 -38 c64 -20 119 -40 122 -44z m193 -117 c-13 -46 -56 -97
-100 -119 -49 -25 -147 -27 -193 -4 -53 27 -117 97 -117 129 0 3 51 6 113 6
61 1 144 5 182 9 131 13 125 14 115 -21z m759 5 c12 -10 -55 -97 -93 -119 -55
-32 -148 -35 -204 -6 -45 23 -97 76 -111 113 l-10 27 207 -6 c114 -3 209 -7
211 -9z"/>
<path d="M4000 3383 c-8 -2 -21 -6 -28 -8 -9 -3 -7 -13 8 -37 18 -30 20 -51
20 -210 0 -167 -1 -179 -21 -199 -20 -20 -20 -21 -2 -41 16 -18 18 -42 21
-205 3 -164 1 -187 -14 -204 -17 -18 -16 -19 29 -19 71 0 77 12 77 145 0 127
4 136 70 156 48 14 76 8 120 -29 l34 -29 -2 -119 c-4 -148 3 -162 63 -139 l40
16 -5 134 -5 134 -44 45 c-24 25 -57 48 -72 51 -16 4 -60 -2 -104 -14 -41 -12
-80 -21 -85 -21 -6 0 -10 18 -10 40 0 21 -5 51 -12 65 -9 19 -9 28 0 37 8 8
12 53 12 130 0 115 1 118 26 134 14 10 47 19 73 22 45 4 52 1 87 -30 l37 -35
-2 -116 c-2 -78 2 -122 10 -135 12 -19 15 -19 53 -5 l41 15 -5 132 c-5 127 -6
132 -35 169 -56 71 -95 80 -210 47 -38 -11 -71 -20 -72 -20 -2 0 -3 22 -3 49
0 74 -37 112 -90 94z"/>
<path d="M4626 3256 c-65 -36 -84 -52 -102 -87 -30 -56 -30 -119 -3 -177 39
-79 167 -151 244 -136 38 7 138 67 168 102 44 49 61 166 33 221 -31 59 -141
121 -216 121 -34 0 -64 -11 -124 -44z m165 -51 c80 -41 109 -78 109 -140 -1
-87 -57 -155 -127 -155 -34 0 -62 18 -125 78 -50 49 -74 98 -64 136 7 28 99
116 121 116 8 0 47 -16 86 -35z"/>
<path d="M5989 3255 c-81 -47 -100 -68 -120 -133 -26 -88 35 -191 145 -243 34
-16 71 -29 84 -29 54 0 180 74 211 124 11 18 25 55 31 83 21 98 -19 166 -130
217 -83 39 -129 35 -221 -19z m169 -50 c60 -30 74 -42 92 -80 23 -48 22 -74
-7 -147 -10 -24 -26 -42 -48 -52 -51 -25 -85 -20 -135 20 -92 72 -126 132
-108 186 12 34 91 108 116 108 11 0 51 -16 90 -35z"/>
<path d="M5276 3274 c-25 -14 -37 -15 -79 -5 -65 15 -92 14 -107 -4 -10 -12
-10 -18 0 -30 8 -10 11 -61 8 -180 l-3 -166 23 -6 c13 -3 34 -1 48 6 24 10 24
13 24 134 0 113 2 127 23 158 20 30 28 34 74 37 42 2 56 -1 72 -17 19 -19 21
-33 21 -161 l0 -140 27 -6 c50 -13 57 2 64 132 4 65 7 126 8 135 3 35 40 59
91 59 84 0 90 -12 90 -184 0 -158 -1 -156 65 -156 38 0 52 14 35 35 -8 9 -11
53 -9 132 3 135 -6 163 -68 210 -46 35 -96 37 -174 5 l-56 -23 -34 20 c-49 29
-107 35 -143 15z"/>
<path d="M4624 2837 c-17 -6 -59 -28 -93 -47 -47 -27 -66 -45 -81 -76 -23 -47
-26 -120 -7 -167 29 -69 148 -147 224 -147 46 0 144 52 187 100 39 44 63 127
52 184 -18 98 -189 191 -282 153z m101 -90 c65 -35 105 -84 105 -127 0 -36
-26 -109 -47 -132 -26 -28 -80 -40 -117 -24 -36 16 -129 101 -145 133 -24 47
-14 85 36 135 58 59 83 61 168 15z"/>
<path d="M5970 2833 c-8 -4 -32 -17 -54 -30 l-38 -25 -22 21 c-25 24 -44 26
-80 10 -24 -11 -24 -12 -10 -49 12 -30 15 -71 12 -184 l-3 -146 23 0 c13 0 32
5 43 10 17 10 19 22 19 148 0 166 3 173 82 180 47 4 58 1 80 -19 39 -36 47
-76 41 -197 l-6 -110 26 -17 c16 -10 34 -14 47 -10 21 7 26 20 11 30 -6 3 -7
64 -4 150 7 162 8 159 -71 216 -38 28 -64 34 -96 22z"/>
<path d="M4926 2811 c-22 -15 -24 -20 -12 -24 14 -5 16 -29 16 -159 0 -84 -5
-160 -10 -168 -23 -36 78 -44 102 -8 5 7 8 63 8 123 -1 61 -1 115 -1 122 1 6
13 25 27 42 32 38 87 43 127 10 26 -20 27 -22 29 -162 l3 -142 40 0 c37 0 40
2 42 30 1 17 5 79 9 139 5 98 9 112 31 134 21 21 31 24 69 19 79 -8 83 -18 86
-186 l3 -146 34 -3 c19 -2 45 -1 58 3 22 5 23 7 7 22 -15 15 -16 32 -11 125 8
132 -5 175 -66 219 -49 36 -93 37 -172 7 l-56 -21 -43 21 c-50 25 -105 28
-145 7 -20 -10 -38 -12 -62 -6 -77 20 -85 20 -113 2z"/>
<path d="M5622 2822 c-10 -7 -10 -15 -1 -38 6 -16 14 -96 17 -177 5 -143 6
-149 29 -164 19 -13 29 -14 49 -4 19 8 23 15 16 24 -5 6 -12 73 -15 147 -6
154 -24 220 -61 220 -11 0 -27 -4 -34 -8z"/>
<path d="M6202 2822 c-10 -7 -10 -15 -2 -37 6 -15 13 -97 17 -182 6 -154 6
-155 32 -164 30 -12 76 7 62 25 -4 6 -11 73 -15 149 -7 156 -24 217 -60 217
-11 0 -27 -4 -34 -8z"/>
<path d="M4139 2390 c-66 -30 -123 -84 -134 -128 -8 -31 22 -78 60 -96 16 -7
56 -21 88 -30 45 -13 62 -24 77 -49 11 -18 20 -40 20 -49 0 -26 -46 -51 -93
-52 -38 -1 -43 2 -56 31 -12 28 -18 32 -40 26 -35 -8 -36 -9 -23 -38 7 -15 28
-33 48 -41 52 -22 148 3 186 49 71 85 36 150 -108 197 -55 18 -68 28 -81 55
-15 31 -15 35 4 67 24 41 49 45 110 18 67 -30 119 -15 76 22 -57 47 -65 48
-134 18z"/>
<path d="M4544 2389 c-16 -18 -16 -23 -4 -42 92 -147 92 -146 12 -163 -75 -15
-120 -42 -144 -82 -34 -58 -18 -111 39 -133 43 -16 85 -10 141 22 l54 31 34
-33 c32 -31 35 -32 74 -20 l40 12 -19 37 c-18 36 -30 84 -51 212 -21 127 -16
118 -87 150 -36 17 -67 30 -68 30 -1 0 -10 -9 -21 -21z m64 -256 c53 -46 25
-133 -42 -133 -40 0 -100 38 -104 66 -2 12 9 35 23 53 21 25 34 31 65 31 22 0
46 -7 58 -17z"/>
<path d="M5063 2392 c-73 -26 -128 -65 -160 -114 -24 -35 -28 -51 -26 -103 2
-77 25 -136 69 -174 39 -35 95 -46 195 -39 55 4 76 11 104 33 42 31 43 58 2
63 -22 3 -31 -3 -48 -32 -21 -35 -22 -36 -86 -36 -57 0 -68 3 -93 28 -49 50
-66 200 -31 278 35 77 81 90 172 50 42 -18 59 -21 77 -13 29 13 28 21 -7 46
-42 30 -106 35 -168 13z"/>
<path d="M6012 2387 l-21 -23 20 -29 c34 -50 70 -125 65 -134 -3 -5 -26 -11
-51 -14 -98 -14 -168 -71 -169 -139 -1 -37 3 -44 33 -65 46 -31 93 -29 158 7
29 17 55 30 58 30 2 0 20 -14 40 -31 35 -31 58 -34 94 -10 11 7 11 12 -2 32
-17 27 -38 98 -42 144 -1 16 -8 64 -15 105 l-13 76 -67 36 -67 37 -21 -22z
m69 -258 c5 -8 12 -29 15 -47 13 -66 -57 -103 -126 -67 -39 20 -50 43 -38 74
19 51 39 63 92 58 26 -2 52 -11 57 -18z"/>
<path d="M5405 2378 c-11 -6 -22 -12 -23 -14 -2 -1 1 -18 7 -36 6 -21 8 -92 3
-201 l-7 -167 52 0 c51 0 52 0 55 33 2 25 8 33 27 35 40 6 70 -7 86 -37 12
-24 23 -30 65 -36 61 -8 72 -2 39 24 -14 11 -33 35 -44 54 l-18 35 38 33 c21
19 46 40 56 46 9 7 25 33 34 57 16 41 16 46 -1 81 -9 20 -32 53 -51 72 l-33
36 -82 -7 c-109 -10 -139 -10 -163 -2 -11 3 -29 1 -40 -6z m230 -64 c21 -9 45
-56 45 -91 -1 -39 -34 -109 -58 -122 -32 -17 -73 -13 -109 12 -33 22 -33 22
-33 104 0 80 1 82 28 91 31 12 103 15 127 6z"/>
<path d="M5603 1910 c-70 -32 -123 -93 -123 -141 0 -45 45 -84 120 -104 70
-18 94 -34 117 -78 13 -26 13 -31 -3 -48 -21 -23 -87 -42 -115 -34 -12 4 -22
19 -26 36 -6 29 -32 39 -59 21 -17 -10 0 -48 31 -68 29 -19 115 -15 159 8 39
20 76 77 76 115 0 45 -31 75 -106 101 -86 31 -107 45 -122 75 -11 22 -10 31 2
55 27 53 37 55 109 27 53 -21 70 -24 86 -15 12 6 21 13 21 16 0 6 -92 64 -99
63 -4 0 -34 -13 -68 -29z"/>
<path d="M4633 1912 c-26 -14 -30 -20 -22 -35 6 -10 9 -92 7 -202 l-3 -185 53
0 52 0 0 40 c0 39 1 40 36 40 30 0 43 -7 73 -40 33 -37 41 -40 86 -40 50 1 50
1 28 19 -12 10 -33 35 -47 56 l-26 37 56 46 c92 76 106 131 53 208 -46 67 -68
78 -142 70 -34 -4 -77 -12 -95 -17 -27 -9 -37 -8 -51 5 -21 19 -18 19 -58 -2z
m249 -82 c26 -32 31 -61 19 -107 -18 -66 -45 -93 -95 -93 -29 0 -52 7 -70 21
-24 19 -26 26 -26 99 0 76 1 80 28 95 40 23 120 14 144 -15z"/>
<path d="M5200 1889 c-41 -22 -90 -56 -109 -74 -30 -30 -35 -42 -39 -94 -6
-81 4 -124 35 -161 73 -88 219 -98 306 -22 17 15 24 52 9 52 -4 0 -19 -13 -34
-30 -19 -22 -35 -30 -60 -30 -62 0 -126 47 -142 106 -6 18 1 25 42 42 26 11
71 24 100 28 29 4 54 10 57 14 5 8 -68 20 -125 20 -60 0 -100 11 -100 28 0 23
47 80 80 97 26 14 33 13 69 -1 86 -34 142 9 59 46 -24 11 -50 20 -58 20 -8 0
-49 -19 -90 -41z"/>
<path d="M8512 8020 c-71 -33 -148 -106 -177 -165 -10 -22 -21 -68 -23 -102
-3 -50 0 -71 21 -116 22 -49 87 -127 105 -127 5 0 263 198 427 328 28 22 28
23 12 56 -66 140 -222 194 -365 126z"/>
<path d="M9021 6920 l-92 -100 140 0 141 0 -13 33 c-52 122 -73 167 -77 167
-3 0 -47 -45 -99 -100z"/>
<path d="M1123 6832 c-22 -14 -37 -100 -25 -141 30 -99 159 -138 229 -69 31
31 54 97 42 120 -5 9 -56 35 -113 57 -112 44 -115 45 -133 33z"/>
<path d="M579 4883 l-136 -4 -7 -54 c-24 -206 142 -344 366 -305 160 28 258
160 232 312 l-9 53 -155 0 c-85 1 -216 -1 -291 -2z"/>
<path d="M831 3883 c11 -38 24 -85 30 -106 7 -27 14 -36 22 -29 7 5 57 44 111
88 l99 79 -124 17 c-68 9 -132 17 -141 17 -15 1 -15 -4 3 -66z"/>
<path d="M1201 3116 c-135 -73 -247 -138 -249 -145 -8 -23 58 -140 96 -171 79
-65 191 -75 299 -26 195 90 255 264 147 424 -19 29 -38 52 -42 51 -4 0 -117
-60 -251 -133z"/>
<path d="M8815 3207 c-57 -27 -100 -72 -126 -132 -38 -89 -59 -70 229 -214
l260 -130 26 37 c39 57 56 106 56 163 0 76 -18 125 -68 180 -95 106 -265 149
-377 96z"/>
<path d="M3056 1295 l-108 -87 98 -52 99 -52 12 131 c7 71 11 134 10 138 -1 5
-51 -30 -111 -78z"/>
<path d="M3842 1049 c-18 -73 -30 -134 -27 -138 4 -3 39 -7 78 -9 58 -2 78 1
103 16 60 38 81 128 44 190 -23 37 -88 71 -135 72 l-31 0 -32 -131z"/>
<path d="M5465 1034 c-47 -24 -72 -52 -96 -107 -47 -107 -23 -334 46 -427 96
-130 292 -97 347 57 19 54 16 234 -5 303 -24 80 -69 145 -116 170 -49 24 -133
27 -176 4z"/>
</g>
</svg>
