<?xml version="1.0" standalone="no"?>
<!DOCTYPE svg PUBLIC "-//W3C//DTD SVG 20010904//EN"
 "http://www.w3.org/TR/2001/REC-SVG-20010904/DTD/svg10.dtd">
<svg version="1.0" xmlns="http://www.w3.org/2000/svg"
 width="36.000000pt" height="36.000000pt" viewBox="0 0 36.000000 36.000000"
 preserveAspectRatio="xMidYMid meet">

<g transform="translate(0.000000,36.000000) scale(0.100000,-0.100000)"
fill="#000000" stroke="none">
<path d="M89 327 c-54 -36 -79 -82 -79 -143 0 -71 7 -89 29 -72 14 12 15 11 2
-5 -12 -15 -11 -21 10 -43 37 -39 73 -54 132 -54 99 0 167 70 167 170 0 66
-24 110 -79 147 -47 32 -135 32 -182 0z m161 -33 c30 -18 60 -62 60 -89 0 -9
5 -13 10 -10 6 4 7 11 4 17 -4 7 -2 8 4 4 9 -5 8 -13 -2 -29 -21 -33 -30 -80
-14 -71 7 4 10 4 6 0 -3 -4 -10 -8 -14 -9 -5 -1 -18 -12 -30 -24 -29 -29 -86
-44 -127 -32 -64 19 -97 63 -97 132 0 44 4 54 39 88 34 34 44 39 86 39 26 0
59 -7 75 -16z"/>
<path d="M107 278 c-7 -4 -7 -8 -2 -8 6 0 10 -25 10 -55 0 -30 -4 -55 -8 -55
-5 0 -5 -4 -2 -10 3 -5 11 -10 16 -10 6 0 7 5 3 12 -4 7 -3 8 4 4 7 -4 12 -13
12 -20 0 -8 14 -13 40 -13 32 0 40 3 35 15 -3 9 0 12 8 9 8 -3 20 -1 28 4 9 5
10 9 2 9 -8 0 -10 11 -6 35 4 24 0 43 -12 61 -16 25 -16 27 -1 21 10 -4 14 -3
11 2 -3 6 -14 9 -25 8 -17 -1 -18 -3 -5 -17 23 -26 28 -72 11 -95 -15 -19 -15
-18 -17 25 l-2 45 -7 -55 -7 -55 -1 53 c-2 68 -20 68 -25 0 l-3 -53 -2 53 c-1
28 -5 52 -10 52 -4 0 -6 -19 -4 -42 3 -40 2 -42 -13 -24 -20 27 -19 58 4 88
19 23 19 24 0 24 -11 0 -25 -4 -32 -8z"/>
</g>
</svg>
